<svg width="21" height="12" viewBox="0 0 21 12" fill="none" xmlns="http://www.w3.org/2000/svg">
<path d="M0.5 6C0.5 2.68629 3.18629 0 6.5 0L8 0C8.55228 0 9 0.447715 9 1C9 1.55228 8.55228 2 8 2H6.5C4.29086 2 2.5 3.79086 2.5 6C2.5 8.20914 4.29086 10 6.5 10H8C8.55228 10 9 10.4477 9 11C9 11.5523 8.55228 12 8 12H6.5C3.18629 12 0.5 9.31371 0.5 6ZM12 1C12 0.447715 12.4477 0 13 0L14.5 0C17.8137 0 20.5 2.68629 20.5 6C20.5 9.31371 17.8137 12 14.5 12H13C12.4477 12 12 11.5523 12 11C12 10.4477 12.4477 10 13 10H14.5C16.7091 10 18.5 8.20914 18.5 6C18.5 3.79086 16.7091 2 14.5 2H13C12.4477 2 12 1.55228 12 1ZM6.5 6C6.5 5.44772 6.94772 5 7.5 5H14.5C15.0523 5 15.5 5.44772 15.5 6C15.5 6.55228 15.0523 7 14.5 7H7.5C6.94772 7 6.5 6.55228 6.5 6Z" fill="white"/>
</svg>
