<svg width="13" height="18" viewBox="0 0 13 18" fill="none" xmlns="http://www.w3.org/2000/svg">
<path d="M7.62 17.78H5.42V16.1C4.1 15.9 3.04 15.4 2.24 14.6C1.45333 13.8 1.00667 12.7733 0.9 11.52H4.32C4.32 12.1067 4.52 12.5733 4.92 12.92C5.32 13.2533 5.86667 13.42 6.56 13.42C6.96 13.42 7.31333 13.3733 7.62 13.28C7.92667 13.1733 8.16667 13.02 8.34 12.82C8.51333 12.62 8.6 12.38 8.6 12.1C8.6 11.8067 8.46667 11.56 8.2 11.36C7.93333 11.1467 7.63333 11.0067 7.3 10.94L5.06 10.46C4.55333 10.3533 4.08 10.2067 3.64 10.02C3.2 9.82 2.81333 9.57333 2.48 9.28C2.16 8.97333 1.90667 8.6 1.72 8.16C1.53333 7.72 1.44 7.2 1.44 6.6C1.44 5.86667 1.60667 5.20667 1.94 4.62C2.27333 4.02 2.74 3.52667 3.34 3.14C3.94 2.75333 4.63333 2.49333 5.42 2.36V0.66H7.62V2.36C8.47333 2.48 9.22 2.74 9.86 3.14C10.5133 3.54 11.0333 4.05333 11.42 4.68C11.8067 5.30667 12.0267 6.03333 12.08 6.86H8.66C8.63333 6.48667 8.53333 6.16667 8.36 5.9C8.18667 5.63333 7.95333 5.42667 7.66 5.28C7.36667 5.12 7.02667 5.04 6.64 5.04C6.32 5.04 6.02667 5.08667 5.76 5.18C5.50667 5.27333 5.3 5.41333 5.14 5.6C4.99333 5.78667 4.92 6.03333 4.92 6.34C4.92 6.52667 4.97333 6.7 5.08 6.86C5.2 7.00667 5.35333 7.12667 5.54 7.22C5.74 7.31333 5.95333 7.38667 6.18 7.44L8.38 7.9C9.22 8.07333 9.92667 8.33333 10.5 8.68C11.0867 9.01333 11.5267 9.43333 11.82 9.94C12.1267 10.4333 12.28 11.0067 12.28 11.66C12.28 12.5 12.0933 13.2467 11.72 13.9C11.3467 14.54 10.8067 15.0533 10.1 15.44C9.40667 15.8267 8.58 16.0667 7.62 16.16V17.78Z" fill="#C8CBCC"/>
</svg>
