<svg width="11" height="6" viewBox="0 0 11 6" fill="none" xmlns="http://www.w3.org/2000/svg">
<path d="M0.912671 0.190775C1.35963 -0.133637 1.98496 -0.0342914 2.30937 0.412671C3.23546 1.6886 4.30717 2.84178 5.50007 3.84764C6.69298 2.84178 7.76469 1.6886 8.69077 0.412671C9.01519 -0.0342908 9.64051 -0.133637 10.0875 0.190775C10.5344 0.515188 10.6338 1.14051 10.3094 1.58747C9.24305 3.0566 8.00021 4.37985 6.61078 5.5255C6.60193 5.5328 6.59168 5.54147 6.58009 5.55127C6.46585 5.64784 6.22163 5.85428 5.90751 5.9439C5.64502 6.0188 5.35513 6.01879 5.09263 5.9439C4.77851 5.85428 4.5343 5.64784 4.42006 5.55127C4.40846 5.54147 4.39821 5.5328 4.38936 5.5255C2.99994 4.37985 1.75709 3.0566 0.690775 1.58747C0.366363 1.14051 0.465709 0.515188 0.912671 0.190775Z" fill="white"/>
</svg>
