<svg width="58" height="58" viewBox="0 0 58 58" fill="none" xmlns="http://www.w3.org/2000/svg">
<mask id="mask0_1_380" style="mask-type:alpha" maskUnits="userSpaceOnUse" x="0" y="0" width="58" height="58">
<path fill-rule="evenodd" clip-rule="evenodd" d="M29.1284 57.1495C44.7453 57.1495 57.4054 44.4894 57.4054 28.8725C57.4054 13.2555 44.7453 0.595444 29.1284 0.595444C13.5114 0.595444 0.851349 13.2555 0.851349 28.8725C0.851349 44.4894 13.5114 57.1495 29.1284 57.1495ZM31.1576 17.3902L31.0041 16.9753C30.3598 15.234 27.897 15.234 27.2527 16.9753L27.0991 17.3902C25.4786 21.7697 22.0256 25.2227 17.6461 26.8432L17.2312 26.9968C15.4899 27.6411 15.4899 30.1039 17.2312 30.7482L17.6461 30.9017C22.0256 32.5223 25.4786 35.9752 27.0991 40.3548L27.2527 40.7697C27.897 42.5109 30.3598 42.5109 31.0041 40.7697L31.1576 40.3548C32.7782 35.9752 36.2311 32.5223 40.6107 30.9017L41.0256 30.7482C42.7668 30.1039 42.7668 27.6411 41.0256 26.9968L40.6107 26.8432C36.2312 25.2227 32.7782 21.7697 31.1576 17.3902Z" fill="#D9D9D9"/>
</mask>
<g mask="url(#mask0_1_380)">
<path fill-rule="evenodd" clip-rule="evenodd" d="M39.0434 -12.3258L-17.0969 43.8144L-16.3898 44.5215L39.7505 -11.6187L39.0434 -12.3258ZM19.669 29.9805L59.7482 -10.8596L62.6031 -8.05788L27.7369 27.4702L39.2042 24.2995L46.3777 22.316L41.1647 27.628L-2.74823 72.3745L-5.60312 69.5728L33.0968 30.1383L21.6294 33.309L14.4559 35.2925L19.669 29.9805ZM11.2532 65.8077L67.3934 9.66744L68.1005 10.3745L11.9603 66.5148L11.2532 65.8077Z" fill="url(#paint0_linear_1_380)"/>
</g>
<defs>
<linearGradient id="paint0_linear_1_380" x1="15.3256" y1="3.74256" x2="44.6604" y2="51.9546" gradientUnits="userSpaceOnUse">
<stop stop-color="white" stop-opacity="0.39"/>
<stop offset="1" stop-color="white" stop-opacity="0.14"/>
</linearGradient>
</defs>
</svg>
