<svg width="61" height="61" viewBox="0 0 61 61" fill="none" xmlns="http://www.w3.org/2000/svg">
<g filter="url(#filter0_di_1_377)">
<mask id="path-1-outside-1_1_377" maskUnits="userSpaceOnUse" x="-0.148651" y="-0.405403" width="59" height="59" fill="black">
<rect fill="white" x="-0.148651" y="-0.405403" width="59" height="59"/>
<path fill-rule="evenodd" clip-rule="evenodd" d="M29.1284 57.1487C44.7453 57.1487 57.4054 44.4886 57.4054 28.8716C57.4054 13.2547 44.7453 0.594597 29.1284 0.594597C13.5114 0.594597 0.851349 13.2547 0.851349 28.8716C0.851349 44.4886 13.5114 57.1487 29.1284 57.1487ZM31.1576 17.3893L31.0041 16.9744C30.3598 15.2332 27.897 15.2332 27.2527 16.9744L27.0991 17.3893C25.4786 21.7688 22.0256 25.2218 17.6461 26.8424L17.2312 26.9959C15.4899 27.6402 15.4899 30.103 17.2312 30.7473L17.6461 30.9009C22.0256 32.5214 25.4786 35.9744 27.0991 40.3539L27.2527 40.7688C27.897 42.5101 30.3598 42.5101 31.0041 40.7688L31.1576 40.3539C32.7782 35.9744 36.2311 32.5214 40.6107 30.9009L41.0256 30.7473C42.7668 30.103 42.7668 27.6402 41.0256 26.9959L40.6107 26.8424C36.2312 25.2218 32.7782 21.7689 31.1576 17.3893Z"/>
</mask>
<path fill-rule="evenodd" clip-rule="evenodd" d="M29.1284 57.1487C44.7453 57.1487 57.4054 44.4886 57.4054 28.8716C57.4054 13.2547 44.7453 0.594597 29.1284 0.594597C13.5114 0.594597 0.851349 13.2547 0.851349 28.8716C0.851349 44.4886 13.5114 57.1487 29.1284 57.1487ZM31.1576 17.3893L31.0041 16.9744C30.3598 15.2332 27.897 15.2332 27.2527 16.9744L27.0991 17.3893C25.4786 21.7688 22.0256 25.2218 17.6461 26.8424L17.2312 26.9959C15.4899 27.6402 15.4899 30.103 17.2312 30.7473L17.6461 30.9009C22.0256 32.5214 25.4786 35.9744 27.0991 40.3539L27.2527 40.7688C27.897 42.5101 30.3598 42.5101 31.0041 40.7688L31.1576 40.3539C32.7782 35.9744 36.2311 32.5214 40.6107 30.9009L41.0256 30.7473C42.7668 30.103 42.7668 27.6402 41.0256 26.9959L40.6107 26.8424C36.2312 25.2218 32.7782 21.7689 31.1576 17.3893Z" fill="url(#paint0_linear_1_377)"/>
<path d="M31.0041 16.9744L31.473 16.8009V16.8009L31.0041 16.9744ZM31.1576 17.3893L30.6887 17.5629V17.5629L31.1576 17.3893ZM27.2527 16.9744L26.7837 16.8009V16.8009L27.2527 16.9744ZM27.0991 17.3893L27.5681 17.5629V17.5629L27.0991 17.3893ZM17.6461 26.8424L17.4726 26.3735H17.4726L17.6461 26.8424ZM17.2312 26.9959L17.4047 27.4648H17.4047L17.2312 26.9959ZM17.2312 30.7473L17.0576 31.2163H17.0577L17.2312 30.7473ZM17.6461 30.9009L17.8196 30.4319L17.6461 30.9009ZM27.0991 40.3539L26.6302 40.5274L27.0991 40.3539ZM27.2527 40.7688L27.7216 40.5953L27.2527 40.7688ZM31.0041 40.7688L31.473 40.9424L31.0041 40.7688ZM31.1576 40.3539L30.6887 40.1804L31.1576 40.3539ZM40.6107 30.9009L40.4371 30.4319L40.6107 30.9009ZM41.0256 30.7473L41.1991 31.2163L41.0256 30.7473ZM41.0256 26.9959L41.1991 26.527L41.0256 26.9959ZM40.6107 26.8424L40.4371 27.3113L40.6107 26.8424ZM56.9054 28.8716C56.9054 44.2125 44.4692 56.6487 29.1284 56.6487V57.6487C45.0215 57.6487 57.9054 44.7647 57.9054 28.8716H56.9054ZM29.1284 1.0946C44.4692 1.0946 56.9054 13.5308 56.9054 28.8716H57.9054C57.9054 12.9785 45.0215 0.0945969 29.1284 0.0945969V1.0946ZM1.35135 28.8716C1.35135 13.5308 13.7875 1.0946 29.1284 1.0946V0.0945969C13.2353 0.0945969 0.351349 12.9785 0.351349 28.8716H1.35135ZM29.1284 56.6487C13.7875 56.6487 1.35135 44.2125 1.35135 28.8716H0.351349C0.351349 44.7647 13.2353 57.6487 29.1284 57.6487V56.6487ZM30.5352 17.1479L30.6887 17.5629L31.6265 17.2158L31.473 16.8009L30.5352 17.1479ZM27.7216 17.1479C28.2048 15.842 30.0519 15.842 30.5352 17.1479L31.473 16.8009C30.6676 14.6244 27.5891 14.6244 26.7837 16.8009L27.7216 17.1479ZM27.5681 17.5629L27.7216 17.1479L26.7837 16.8009L26.6302 17.2158L27.5681 17.5629ZM17.8196 27.3113C22.336 25.6401 25.8969 22.0792 27.5681 17.5629L26.6302 17.2158C25.0603 21.4585 21.7152 24.8035 17.4726 26.3735L17.8196 27.3113ZM17.4047 27.4648L17.8196 27.3113L17.4726 26.3735L17.0577 26.527L17.4047 27.4648ZM17.4047 30.2784C16.0988 29.7952 16.0988 27.9481 17.4047 27.4648L17.0577 26.527C14.8811 27.3324 14.8811 30.4109 17.0576 31.2163L17.4047 30.2784ZM17.8196 30.4319L17.4047 30.2784L17.0577 31.2163L17.4726 31.3698L17.8196 30.4319ZM27.5681 40.1804C25.8969 35.664 22.336 32.1031 17.8196 30.4319L17.4726 31.3698C21.7152 32.9397 25.0603 36.2848 26.6302 40.5274L27.5681 40.1804ZM27.7216 40.5953L27.5681 40.1804L26.6302 40.5274L26.7837 40.9423L27.7216 40.5953ZM30.5352 40.5953C30.0519 41.9012 28.2048 41.9012 27.7216 40.5953L26.7837 40.9423C27.5891 43.1189 30.6676 43.1189 31.473 40.9424L30.5352 40.5953ZM30.6887 40.1804L30.5352 40.5953L31.473 40.9424L31.6265 40.5274L30.6887 40.1804ZM40.4371 30.4319C35.9208 32.1031 32.3599 35.664 30.6887 40.1804L31.6265 40.5274C33.1965 36.2848 36.5415 32.9397 40.7842 31.3698L40.4371 30.4319ZM40.8521 30.2784L40.4371 30.4319L40.7842 31.3698L41.1991 31.2163L40.8521 30.2784ZM40.8521 27.4648C42.158 27.9481 42.158 29.7952 40.8521 30.2784L41.1991 31.2163C43.3756 30.4109 43.3757 27.3324 41.1991 26.527L40.8521 27.4648ZM40.4371 27.3113L40.8521 27.4648L41.1991 26.527L40.7842 26.3735L40.4371 27.3113ZM30.6887 17.5629C32.3599 22.0792 35.9208 25.6401 40.4371 27.3113L40.7842 26.3735C36.5415 24.8035 33.1965 21.4585 31.6265 17.2158L30.6887 17.5629Z" fill="black" mask="url(#path-1-outside-1_1_377)"/>
</g>
<defs>
<filter id="filter0_di_1_377" x="0.351349" y="0.0945969" width="60.5541" height="60.5541" filterUnits="userSpaceOnUse" color-interpolation-filters="sRGB">
<feFlood flood-opacity="0" result="BackgroundImageFix"/>
<feColorMatrix in="SourceAlpha" type="matrix" values="0 0 0 0 0 0 0 0 0 0 0 0 0 0 0 0 0 0 127 0" result="hardAlpha"/>
<feOffset dx="3" dy="3"/>
<feComposite in2="hardAlpha" operator="out"/>
<feColorMatrix type="matrix" values="0 0 0 0 0 0 0 0 0 0 0 0 0 0 0 0 0 0 1 0"/>
<feBlend mode="normal" in2="BackgroundImageFix" result="effect1_dropShadow_1_377"/>
<feBlend mode="normal" in="SourceGraphic" in2="effect1_dropShadow_1_377" result="shape"/>
<feColorMatrix in="SourceAlpha" type="matrix" values="0 0 0 0 0 0 0 0 0 0 0 0 0 0 0 0 0 0 127 0" result="hardAlpha"/>
<feOffset dx="1" dy="1"/>
<feGaussianBlur stdDeviation="1.5"/>
<feComposite in2="hardAlpha" operator="arithmetic" k2="-1" k3="1"/>
<feColorMatrix type="matrix" values="0 0 0 0 1 0 0 0 0 0.9 0 0 0 0 0 0 0 0 1 0"/>
<feBlend mode="normal" in2="shape" result="effect2_innerShadow_1_377"/>
</filter>
<linearGradient id="paint0_linear_1_377" x1="13.3265" y1="4.75298" x2="44.0986" y2="52.1586" gradientUnits="userSpaceOnUse">
<stop stop-color="#FCD34D"/>
<stop offset="0.5" stop-color="#FBBF24"/>
<stop offset="1" stop-color="#F59E0B"/>
</linearGradient>
</defs>
</svg>
