<svg width="16" height="14" viewBox="0 0 16 14" fill="none" xmlns="http://www.w3.org/2000/svg">
<path d="M3.97764 0.828775C4.0722 1.18461 3.8604 1.54974 3.50456 1.6443C2.65191 1.8709 2 2.68031 2 3.66667C2 4.65302 2.65191 5.46244 3.50456 5.68903C3.8604 5.7836 4.0722 6.14872 3.97764 6.50456C3.88307 6.8604 3.51795 7.0722 3.16211 6.97764C1.71445 6.59292 0.666667 5.24627 0.666667 3.66667C0.666667 2.08706 1.71445 0.74042 3.16211 0.355699C3.51795 0.261133 3.88307 0.472937 3.97764 0.828775ZM12.0224 0.828775C12.1169 0.472937 12.4821 0.261133 12.8379 0.355699C14.2855 0.74042 15.3333 2.08706 15.3333 3.66667C15.3333 5.24627 14.2855 6.59292 12.8379 6.97764C12.4821 7.0722 12.1169 6.8604 12.0224 6.50456C11.9278 6.14872 12.1396 5.7836 12.4954 5.68903C13.3481 5.46244 14 4.65302 14 3.66667C14 2.68031 13.3481 1.8709 12.4954 1.6443C12.1396 1.54974 11.9278 1.18461 12.0224 0.828775ZM8 1.66667C6.89543 1.66667 6 2.5621 6 3.66667C6 4.77124 6.89543 5.66667 8 5.66667C9.10457 5.66667 10 4.77124 10 3.66667C10 2.5621 9.10457 1.66667 8 1.66667ZM4.66667 3.66667C4.66667 1.82572 6.15905 0.333335 8 0.333335C9.84095 0.333335 11.3333 1.82572 11.3333 3.66667C11.3333 5.50762 9.84095 7 8 7C6.15905 7 4.66667 5.50762 4.66667 3.66667ZM2.66667 11.5C2.66667 9.7511 4.08443 8.33333 5.83333 8.33333H10.1667C11.9156 8.33333 13.3333 9.7511 13.3333 11.5C13.3333 12.6966 12.3633 13.6667 11.1667 13.6667H4.83333C3.63672 13.6667 2.66667 12.6966 2.66667 11.5ZM5.83333 9.66667C4.82081 9.66667 4 10.4875 4 11.5C4 11.9602 4.3731 12.3333 4.83333 12.3333H11.1667C11.6269 12.3333 12 11.9602 12 11.5C12 10.4875 11.1792 9.66667 10.1667 9.66667H5.83333ZM1.65381 9.15087C1.93868 9.38414 1.98051 9.80417 1.74724 10.089C1.48824 10.4053 1.33333 10.8084 1.33333 11.2495C1.33333 11.5129 1.45481 11.7475 1.64742 11.9013C1.93514 12.1311 1.98215 12.5506 1.75242 12.8383C1.52268 13.126 1.1032 13.173 0.815472 12.9433C0.319623 12.5474 0 11.9355 0 11.2495C0 10.4893 0.26869 9.79012 0.715646 9.2443C0.948915 8.95943 1.36895 8.9176 1.65381 9.15087ZM14.3462 9.4014C14.6311 9.16813 15.0511 9.20996 15.2844 9.49483C15.7313 10.0406 16 10.7398 16 11.5C16 12.1861 15.6804 12.7979 15.1845 13.1938C14.8968 13.4235 14.4773 13.3765 14.2476 13.0888C14.0178 12.8011 14.0649 12.3816 14.3526 12.1519C14.5452 11.9981 14.6667 11.7634 14.6667 11.5C14.6667 11.059 14.5118 10.6559 14.2528 10.3396C14.0195 10.0547 14.0613 9.63467 14.3462 9.4014Z" fill="#818CF8"/>
</svg>
