<svg width="20" height="22" viewBox="0 0 20 22" fill="none" xmlns="http://www.w3.org/2000/svg">
<path d="M8.99283 0.678313C9.65738 0.541637 10.3428 0.541637 11.0073 0.678313C11.7937 0.84005 12.516 1.25376 13.5938 1.85254C14.5078 2.36032 15.4217 2.86843 16.3359 3.37585C17.3967 3.96464 18.1298 4.37156 18.6769 4.96524C19.1593 5.48868 19.5243 6.1091 19.7477 6.78498C20.0009 7.55155 20.0006 8.39003 20.0001 9.60329C19.9998 10.5344 19.9998 11.4655 20.0001 12.3967C20.0006 13.6099 20.0009 14.4484 19.7477 15.215C19.5243 15.8908 19.1593 16.5113 18.6769 17.0347C18.1298 17.6284 17.3967 18.0353 16.3359 18.6241C15.377 19.1563 14.4183 19.6889 13.4599 20.2219C12.4552 20.7805 11.7607 21.1667 11.0073 21.3216C10.3428 21.4583 9.65738 21.4583 8.99283 21.3216C8.23946 21.1667 7.54492 20.7805 6.54029 20.2219C6.49624 20.1974 6.4516 20.1725 6.40632 20.1474L3.80633 18.703C3.75833 18.6763 3.71099 18.65 3.66428 18.6241C2.60347 18.0353 1.87035 17.6284 1.32325 17.0347C0.840871 16.5113 0.475819 15.8908 0.252507 15.215C-0.000768214 14.4484 -0.000437541 13.6099 4.07268e-05 12.3967C6.18268e-05 12.3432 8.31653e-05 12.2891 8.31653e-05 12.2342L8.31653e-05 9.76575C8.31653e-05 9.71085 6.18268e-05 9.65671 4.07268e-05 9.60329C-0.000437541 8.39003 -0.000768214 7.55155 0.252507 6.78498C0.475819 6.1091 0.840871 5.48868 1.32325 4.96524C1.87035 4.37156 2.60347 3.96464 3.66428 3.37585C3.71099 3.34993 3.75833 3.32365 3.80633 3.29699L6.40632 1.85254C6.4516 1.82739 6.49625 1.80256 6.5403 1.77807C7.54492 1.21945 8.23946 0.833256 8.99283 0.678313ZM10.6044 2.63731C10.2057 2.5553 9.79446 2.5553 9.39573 2.63731C8.98076 2.72266 8.56865 2.93917 7.37761 3.60086L4.77761 5.0453C3.51935 5.74433 3.09521 5.9937 2.79398 6.32058C2.50456 6.63464 2.28552 7.00689 2.15154 7.41242C2.01209 7.83449 2.00008 8.32636 2.00008 9.76575V12.2342C2.00008 13.6736 2.01209 14.1655 2.15154 14.5875C2.28552 14.993 2.50456 15.3653 2.79398 15.6794C3.09521 16.0062 3.51935 16.2556 4.77761 16.9546L6.07876 17.6775C6.73198 12.2259 11.3725 7.99997 17.0001 7.99997H17.9614C17.939 7.75705 17.9038 7.57928 17.8486 7.41242C17.7146 7.00689 17.4956 6.63464 17.2062 6.32058C16.905 5.9937 16.4808 5.74433 15.2226 5.0453L12.6226 3.60086C11.4315 2.93917 11.0194 2.72266 10.6044 2.63731ZM18.0001 9.99997H17.0001C12.115 9.99997 8.13892 13.892 8.00364 18.7444C8.73319 19.1419 9.06355 19.2943 9.39573 19.3626C9.79446 19.4446 10.2057 19.4446 10.6044 19.3626C11.0194 19.2773 11.4315 19.0608 12.6226 18.3991L15.2226 16.9546C16.4808 16.2556 16.905 16.0062 17.2062 15.6794C17.4956 15.3653 17.7146 14.993 17.8486 14.5875C17.9881 14.1655 18.0001 13.6736 18.0001 12.2342V9.99997ZM5.00008 7.99997C5.00008 6.8954 5.89551 5.99997 7.00008 5.99997C8.10465 5.99997 9.00008 6.8954 9.00008 7.99997C9.00008 9.10454 8.10465 9.99997 7.00008 9.99997C5.89551 9.99997 5.00008 9.10454 5.00008 7.99997Z" fill="white"/>
</svg>
