<svg width="20" height="22" viewBox="0 0 20 22" fill="none" xmlns="http://www.w3.org/2000/svg">
<path d="M6.99998 11.019L9.00671 13.0236C9.97188 11.3359 11.3076 9.88937 12.9132 8.79301L13 8.73372M8.75027 1.36794L3.36268 3.31346C2.21349 3.72845 1.43079 4.79891 1.38383 6.01983L1.25658 9.32841C1.09889 13.4281 3.23586 17.2748 6.79995 19.307L8.32062 20.174C9.22144 20.6877 10.3236 20.6997 11.2354 20.2058L12.7241 19.3994C16.5414 17.3317 18.7855 13.2122 18.4526 8.88357L18.2256 5.93307C18.1351 4.75651 17.3633 3.74229 16.2534 3.3415L10.7881 1.36794C10.1297 1.13016 9.40875 1.13016 8.75027 1.36794Z" stroke="white" stroke-width="2" stroke-linecap="round" stroke-linejoin="round"/>
</svg>
