<svg width="12" height="16" viewBox="0 0 12 16" fill="none" xmlns="http://www.w3.org/2000/svg">
<path d="M4 1.33334C4 0.965149 4.29848 0.666672 4.66667 0.666672H7.33333C7.70152 0.666672 8 0.965149 8 1.33334C8 1.70153 7.70152 2.00001 7.33333 2.00001H6.66667V3.36996C9.66663 3.70159 12 6.24497 12 9.33334C12 12.647 9.31371 15.3333 6 15.3333C2.68629 15.3333 0 12.647 0 9.33334C0 6.24497 2.33337 3.70159 5.33333 3.36996V2.00001H4.66667C4.29848 2.00001 4 1.70153 4 1.33334ZM10.1953 2.86193C10.4556 2.60158 10.8777 2.60158 11.1381 2.86193L11.8047 3.5286C12.0651 3.78895 12.0651 4.21106 11.8047 4.47141C11.5444 4.73176 11.1223 4.73176 10.8619 4.47141L10.1953 3.80474C9.93491 3.54439 9.93491 3.12228 10.1953 2.86193ZM6 4.66667C3.42267 4.66667 1.33333 6.75601 1.33333 9.33334C1.33333 11.9107 3.42267 14 6 14C8.57733 14 10.6667 11.9107 10.6667 9.33334C10.6667 6.75601 8.57733 4.66667 6 4.66667ZM8.23917 6.9275C8.49952 7.18785 8.49952 7.60996 8.23917 7.87031L6.35355 9.75593C6.0932 10.0163 5.67109 10.0163 5.41074 9.75593C5.15039 9.49558 5.15039 9.07347 5.41074 8.81312L7.29636 6.9275C7.55671 6.66715 7.97882 6.66715 8.23917 6.9275Z" fill="#F43F5E"/>
</svg>
