<svg width="12" height="15" viewBox="0 0 12 15" fill="none" xmlns="http://www.w3.org/2000/svg">
<path d="M4 0.833338C4 0.465149 4.29848 0.166672 4.66667 0.166672H7.33333C7.70152 0.166672 8 0.465149 8 0.833338C8 1.20153 7.70152 1.50001 7.33333 1.50001H6.66667V2.86996C9.66663 3.20159 12 5.74497 12 8.83334C12 12.147 9.31371 14.8333 6 14.8333C2.68629 14.8333 0 12.147 0 8.83334C0 5.74497 2.33337 3.20159 5.33333 2.86996V1.50001H4.66667C4.29848 1.50001 4 1.20153 4 0.833338ZM10.1953 2.36193C10.4556 2.10158 10.8777 2.10158 11.1381 2.36193L11.8047 3.0286C12.0651 3.28895 12.0651 3.71106 11.8047 3.97141C11.5444 4.23176 11.1223 4.23176 10.8619 3.97141L10.1953 3.30474C9.93491 3.04439 9.93491 2.62228 10.1953 2.36193ZM6 4.16667C3.42267 4.16667 1.33333 6.25601 1.33333 8.83334C1.33333 11.4107 3.42267 13.5 6 13.5C8.57733 13.5 10.6667 11.4107 10.6667 8.83334C10.6667 6.25601 8.57733 4.16667 6 4.16667ZM8.23917 6.4275C8.49952 6.68785 8.49952 7.10996 8.23917 7.37031L6.35355 9.25593C6.0932 9.51628 5.67109 9.51628 5.41074 9.25593C5.15039 8.99558 5.15039 8.57347 5.41074 8.31312L7.29636 6.4275C7.55671 6.16715 7.97882 6.16715 8.23917 6.4275Z" fill="#6F767E"/>
</svg>
