<svg width="22" height="21" viewBox="0 0 22 21" fill="none" xmlns="http://www.w3.org/2000/svg">
<path d="M12.9994 3.36183C14.1358 2.76975 15.6474 2.83891 16.8176 3.93103C17.0027 4.10386 17.2466 4.19998 17.4999 4.19998C17.7688 4.19998 18.0428 4.15628 18.3026 4.09234C18.1429 4.30963 17.9724 4.51321 17.7928 4.69287C17.5297 4.9559 17.4344 5.3432 17.5454 5.69825C18.7823 9.6562 17.8897 13.0928 15.6574 15.2709C13.4164 17.4576 9.64346 18.55 4.78699 17.4052C4.70409 17.3856 4.62465 17.3669 4.54852 17.3489C4.71301 17.2715 4.89323 17.1872 5.0902 17.095C5.83597 16.7461 6.53513 16.2979 7.15838 15.7526C7.43222 15.5129 7.5543 15.1435 7.47713 14.7879C7.39997 14.4323 7.13575 14.1467 6.78723 14.0422C2.90411 12.8772 1.47607 8.1284 3.52365 5.04199C4.43515 6.03193 5.32631 6.80546 6.41185 7.31119C7.58462 7.85755 8.88844 8.04781 10.5293 7.99955C10.826 7.99082 11.1035 7.85072 11.2867 7.61716C11.4699 7.38359 11.5399 7.0807 11.4777 6.79045C11.128 5.15858 11.8846 3.94264 12.9994 3.36183ZM17.8142 2.15277C16.0347 0.748555 13.7932 0.693103 12.0753 1.58813C10.5202 2.39837 9.39617 3.98779 9.39086 5.98782C8.50538 5.93434 7.83576 5.76816 7.25644 5.49827C6.45355 5.12423 5.7279 4.5071 4.81492 3.48907C4.8093 3.4828 4.80358 3.47641 4.79778 3.46994C4.71162 3.37377 4.60671 3.25668 4.50425 3.16194C4.38266 3.04952 4.20041 2.90586 3.94299 2.82295C3.6113 2.71612 3.23116 2.73153 2.90921 2.86486C2.51716 3.02722 2.27426 3.35681 2.16161 3.50965C2.15048 3.52475 2.14062 3.53813 2.13202 3.54945C-0.636865 7.19171 0.449731 12.7973 4.44777 15.1835C4.38004 15.2179 4.31164 15.2512 4.2426 15.2835L4.2178 15.2951C3.565 15.6005 3.04459 15.844 2.67966 16.0339C2.49658 16.1291 2.32091 16.227 2.17599 16.3261C2.10331 16.3757 2.01679 16.4402 1.93419 16.5195C1.86064 16.5902 1.73143 16.7277 1.64661 16.9332C1.56497 17.131 1.50435 17.3785 1.53353 17.6606C1.56271 17.9427 1.6727 18.1725 1.79309 18.3494C1.99093 18.6401 2.28318 18.7726 2.3923 18.8209C2.54635 18.8892 2.72231 18.946 2.89524 18.9959C3.23764 19.0948 3.71412 19.2071 4.2983 19.3448L4.32812 19.3518C9.68155 20.6138 14.2109 19.4767 17.0542 16.7023C19.7901 14.0327 20.7975 10.0075 19.6166 5.65731C19.9211 5.29198 20.183 4.90606 20.4035 4.53961L20.4235 4.50631C20.5569 4.2846 20.6924 4.05945 20.7848 3.86511C20.8731 3.67931 21.0276 3.31768 20.9439 2.89023C20.8478 2.39915 20.5141 1.98922 20.0527 1.79544C19.6241 1.61539 19.1949 1.72351 19.0104 1.77139C18.7816 1.83081 18.4993 1.92979 18.1993 2.035L18.1632 2.04766C18.0304 2.09422 17.9139 2.12859 17.8142 2.15277Z" fill="#C8CBCC"/>
<path d="M12.9994 3.36183C14.1358 2.76975 15.6474 2.83891 16.8176 3.93103C17.0027 4.10386 17.2466 4.19998 17.4999 4.19998C17.7688 4.19998 18.0428 4.15628 18.3026 4.09234C18.1429 4.30963 17.9724 4.51321 17.7928 4.69287C17.5297 4.9559 17.4344 5.3432 17.5454 5.69825C18.7823 9.6562 17.8897 13.0928 15.6574 15.2709C13.4164 17.4576 9.64346 18.55 4.78699 17.4052C4.70409 17.3856 4.62465 17.3669 4.54852 17.3489C4.71301 17.2715 4.89323 17.1872 5.0902 17.095C5.83597 16.7461 6.53513 16.2979 7.15838 15.7526C7.43222 15.5129 7.5543 15.1435 7.47713 14.7879C7.39997 14.4323 7.13575 14.1467 6.78723 14.0422C2.90411 12.8772 1.47607 8.1284 3.52365 5.04199C4.43515 6.03193 5.32631 6.80546 6.41185 7.31119C7.58462 7.85755 8.88844 8.04781 10.5293 7.99955C10.826 7.99082 11.1035 7.85072 11.2867 7.61716C11.4699 7.38359 11.5399 7.0807 11.4777 6.79045C11.128 5.15858 11.8846 3.94264 12.9994 3.36183ZM17.8142 2.15277C16.0347 0.748555 13.7932 0.693103 12.0753 1.58813C10.5202 2.39837 9.39617 3.98779 9.39086 5.98782C8.50538 5.93434 7.83576 5.76816 7.25644 5.49827C6.45355 5.12423 5.7279 4.5071 4.81492 3.48907C4.8093 3.4828 4.80358 3.47641 4.79778 3.46994C4.71162 3.37377 4.60671 3.25668 4.50425 3.16194C4.38266 3.04952 4.20041 2.90586 3.94299 2.82295C3.6113 2.71612 3.23116 2.73153 2.90921 2.86486C2.51716 3.02722 2.27426 3.35681 2.16161 3.50965C2.15048 3.52475 2.14062 3.53813 2.13202 3.54945C-0.636865 7.19171 0.449731 12.7973 4.44777 15.1835C4.38004 15.2179 4.31164 15.2512 4.2426 15.2835L4.2178 15.2951C3.565 15.6005 3.04459 15.844 2.67966 16.0339C2.49658 16.1291 2.32091 16.227 2.17599 16.3261C2.10331 16.3757 2.01679 16.4402 1.93419 16.5195C1.86064 16.5902 1.73143 16.7277 1.64661 16.9332C1.56497 17.131 1.50435 17.3785 1.53353 17.6606C1.56271 17.9427 1.6727 18.1725 1.79309 18.3494C1.99093 18.6401 2.28318 18.7726 2.3923 18.8209C2.54635 18.8892 2.72231 18.946 2.89524 18.9959C3.23764 19.0948 3.71412 19.2071 4.2983 19.3448L4.32812 19.3518C9.68155 20.6138 14.2109 19.4767 17.0542 16.7023C19.7901 14.0327 20.7975 10.0075 19.6166 5.65731C19.9211 5.29198 20.183 4.90606 20.4035 4.53961L20.4235 4.50631C20.5569 4.2846 20.6924 4.05945 20.7848 3.86511C20.8731 3.67931 21.0276 3.31768 20.9439 2.89023C20.8478 2.39915 20.5141 1.98922 20.0527 1.79544C19.6241 1.61539 19.1949 1.72351 19.0104 1.77139C18.7816 1.83081 18.4993 1.92979 18.1993 2.035L18.1632 2.04766C18.0304 2.09422 17.9139 2.12859 17.8142 2.15277Z" stroke="black" stroke-linecap="round" stroke-linejoin="round"/>
</svg>
