<svg width="22" height="22" viewBox="0 0 22 22" fill="none" xmlns="http://www.w3.org/2000/svg">
<path d="M3.22222 11H18.7778M3.22222 11V16.5556C3.22222 18.1113 3.22222 18.8891 3.52498 19.4833C3.7913 20.006 4.21624 20.4309 4.73892 20.6972C5.33311 21 6.11097 21 7.66667 21H14.3333C15.889 21 16.6669 21 17.2611 20.6972C17.7838 20.4309 18.2087 20.006 18.475 19.4833C18.7778 18.8891 18.7778 18.1113 18.7778 16.5556V11M3.22222 11C2.91259 11 2.75778 11 2.62793 10.9819C1.7919 10.8653 1.13473 10.2081 1.01811 9.37207C1 9.24222 1 9.08741 1 8.77778C1 8.46815 1 8.31334 1.01811 8.18348C1.13473 7.34746 1.7919 6.69029 2.62793 6.57367C2.75778 6.55556 2.91259 6.55556 3.22222 6.55556H18.7778C19.0874 6.55556 19.2422 6.55556 19.3721 6.57367C20.2081 6.69029 20.8653 7.34746 20.9819 8.18348C21 8.31334 21 8.46815 21 8.77778C21 9.08741 21 9.24222 20.9819 9.37207C20.8653 10.2081 20.2081 10.8653 19.3721 10.9819C19.2422 11 19.0874 11 18.7778 11M11 6.55556H13.7778C15.3119 6.55556 16.5556 5.3119 16.5556 3.77778C16.5556 2.24365 15.3119 1 13.7778 1C12.2437 1 11 2.24365 11 3.77778M11 6.55556V3.77778M11 6.55556L11 21M11 6.55556H8.22222C6.6881 6.55556 5.44444 5.3119 5.44444 3.77778C5.44444 2.24365 6.6881 1 8.22222 1C9.75635 1 11 2.24365 11 3.77778" stroke="#AEB1B3" stroke-width="2" stroke-linecap="round" stroke-linejoin="round"/>
</svg>
